<?xml version="1.0" encoding="UTF-8" standalone="no"?>
<!DOCTYPE svg PUBLIC "-//W3C//DTD SVG 1.1//EN"
 "http://www.w3.org/Graphics/SVG/1.1/DTD/svg11.dtd">
<!-- Generated by graphviz version 2.38.0 (20140413.2041)
 -->
<!-- Title: QState Pages: 1 -->
<svg width="1784pt" height="479pt"
 viewBox="0.00 0.00 1784.00 479.00" xmlns="http://www.w3.org/2000/svg" xmlns:xlink="http://www.w3.org/1999/xlink">
<g id="graph0" class="graph" transform="scale(1 1) rotate(0) translate(4 475)">
<title>QState</title>
<polygon fill="white" stroke="none" points="-4,4 -4,-475 1780,-475 1780,4 -4,4"/>
<!-- LOCAL_NO -->
<g id="node1" class="node"><title>LOCAL_NO</title>
<ellipse fill="none" stroke="black" cx="428" cy="-453" rx="59.2899" ry="18"/>
<text text-anchor="middle" x="428" y="-449.3" font-family="Times New Roman,serif" font-size="14.00">LOCAL_NO</text>
</g>
<!-- LOCAL_WANT_YES -->
<g id="node5" class="node"><title>LOCAL_WANT_YES</title>
<ellipse fill="none" stroke="black" cx="298" cy="-366" rx="94.7833" ry="18"/>
<text text-anchor="middle" x="298" y="-362.3" font-family="Times New Roman,serif" font-size="14.00">LOCAL_WANT_YES</text>
</g>
<!-- LOCAL_NO&#45;&gt;LOCAL_WANT_YES -->
<g id="edge1" class="edge"><title>LOCAL_NO&#45;&gt;LOCAL_WANT_YES</title>
<path fill="none" stroke="green" d="M377.411,-443.632C358.645,-438.483 338.242,-430.219 323,-417 315.939,-410.876 310.652,-402.282 306.804,-393.945"/>
<polygon fill="green" stroke="green" points="309.944,-392.376 302.928,-384.438 303.462,-395.019 309.944,-392.376"/>
<text text-anchor="middle" x="349" y="-405.8" font-family="Times New Roman,serif" font-size="14.00">SendWill</text>
</g>
<!-- LOCAL_NO&#45;&gt;LOCAL_WANT_YES -->
<g id="edge3" class="edge"><title>LOCAL_NO&#45;&gt;LOCAL_WANT_YES</title>
<path fill="none" stroke="blue" d="M412.949,-435.196C402.933,-424.708 389.071,-411.451 375,-402 366.589,-396.351 357.118,-391.204 347.77,-386.699"/>
<polygon fill="blue" stroke="blue" points="349.052,-383.436 338.506,-382.414 346.113,-389.789 349.052,-383.436"/>
<text text-anchor="middle" x="417.5" y="-405.8" font-family="Times New Roman,serif" font-size="14.00">RecvDo</text>
</g>
<!-- LOCAL_Ignore -->
<g id="node7" class="node"><title>LOCAL_Ignore</title>
<ellipse fill="none" stroke="black" cx="716" cy="-192" rx="69.5877" ry="18"/>
<text text-anchor="middle" x="716" y="-188.3" font-family="Times New Roman,serif" font-size="14.00">LOCAL_Ignore</text>
</g>
<!-- LOCAL_NO&#45;&gt;LOCAL_Ignore -->
<g id="edge4" class="edge"><title>LOCAL_NO&#45;&gt;LOCAL_Ignore</title>
<path fill="none" stroke="purple" stroke-dasharray="5,2" d="M467.486,-439.53C500.548,-428.036 548.109,-408.985 585,-384 658.64,-334.127 692.819,-325.109 727,-243 730.04,-235.697 729.637,-227.429 727.817,-219.749"/>
<polygon fill="purple" stroke="purple" points="731.127,-218.606 724.779,-210.123 724.451,-220.712 731.127,-218.606"/>
<text text-anchor="middle" x="711" y="-318.8" font-family="Times New Roman,serif" font-size="14.00">RecvDont</text>
</g>
<!-- LOCAL_Error -->
<g id="node8" class="node"><title>LOCAL_Error</title>
<ellipse fill="none" stroke="black" cx="454" cy="-18" rx="64.9885" ry="18"/>
<text text-anchor="middle" x="454" y="-14.3" font-family="Times New Roman,serif" font-size="14.00">LOCAL_Error</text>
</g>
<!-- LOCAL_NO&#45;&gt;LOCAL_Error -->
<g id="edge2" class="edge"><title>LOCAL_NO&#45;&gt;LOCAL_Error</title>
<path fill="none" stroke="red" stroke-dasharray="5,2" d="M487.045,-451.109C595.175,-447.865 814,-433.132 814,-367 814,-367 814,-367 814,-104 814,-45.8907 634.091,-27.4611 528.638,-21.6497"/>
<polygon fill="red" stroke="red" points="528.531,-18.1393 518.361,-21.1102 528.164,-25.1297 528.531,-18.1393"/>
<text text-anchor="middle" x="844.5" y="-231.8" font-family="Times New Roman,serif" font-size="14.00">SendWont</text>
</g>
<!-- LOCAL_WANT_NO -->
<g id="node2" class="node"><title>LOCAL_WANT_NO</title>
<ellipse fill="none" stroke="black" cx="449" cy="-192" rx="90.9839" ry="18"/>
<text text-anchor="middle" x="449" y="-188.3" font-family="Times New Roman,serif" font-size="14.00">LOCAL_WANT_NO</text>
</g>
<!-- LOCAL_WANT_NO&#45;&gt;LOCAL_NO -->
<g id="edge8" class="edge"><title>LOCAL_WANT_NO&#45;&gt;LOCAL_NO</title>
<path fill="none" stroke="purple" d="M451.174,-210.174C455.443,-248.125 463.023,-341.726 445,-417 444.307,-419.895 443.349,-422.83 442.237,-425.706"/>
<polygon fill="purple" stroke="purple" points="438.919,-424.553 438.031,-435.11 445.309,-427.411 438.919,-424.553"/>
<text text-anchor="middle" x="486" y="-318.8" font-family="Times New Roman,serif" font-size="14.00">RecvDont</text>
</g>
<!-- LOCAL_WANT_NO_OPPOSITE -->
<g id="node3" class="node"><title>LOCAL_WANT_NO_OPPOSITE</title>
<ellipse fill="none" stroke="black" cx="338" cy="-105" rx="139.976" ry="18"/>
<text text-anchor="middle" x="338" y="-101.3" font-family="Times New Roman,serif" font-size="14.00">LOCAL_WANT_NO_OPPOSITE</text>
</g>
<!-- LOCAL_WANT_NO&#45;&gt;LOCAL_WANT_NO_OPPOSITE -->
<g id="edge5" class="edge"><title>LOCAL_WANT_NO&#45;&gt;LOCAL_WANT_NO_OPPOSITE</title>
<path fill="none" stroke="green" d="M444.258,-173.767C440.55,-163.108 434.415,-149.822 425,-141 418.767,-135.159 411.434,-130.243 403.714,-126.116"/>
<polygon fill="green" stroke="green" points="405.038,-122.868 394.516,-121.628 401.968,-129.159 405.038,-122.868"/>
<text text-anchor="middle" x="462" y="-144.8" font-family="Times New Roman,serif" font-size="14.00">SendWill</text>
</g>
<!-- LOCAL_WANT_NO&#45;&gt;LOCAL_Error -->
<g id="edge6" class="edge"><title>LOCAL_WANT_NO&#45;&gt;LOCAL_Error</title>
<path fill="none" stroke="red" stroke-dasharray="5,2" d="M476.448,-174.721C482.705,-169.581 488.528,-163.302 492,-156 509.501,-119.19 488.614,-72.866 471.58,-44.6171"/>
<polygon fill="red" stroke="red" points="474.522,-42.721 466.239,-36.1155 468.595,-46.445 474.522,-42.721"/>
<text text-anchor="middle" x="529.5" y="-101.3" font-family="Times New Roman,serif" font-size="14.00">SendWont</text>
</g>
<!-- LOCAL_WANT_NO&#45;&gt;LOCAL_Error -->
<g id="edge7" class="edge"><title>LOCAL_WANT_NO&#45;&gt;LOCAL_Error</title>
<path fill="none" stroke="blue" stroke-dasharray="5,2" d="M495.529,-176.376C520.622,-165.835 549.372,-148.835 564,-123 571.883,-109.077 571.791,-100.975 564,-87 550.933,-63.5595 526.087,-47.1838 503.31,-36.3857"/>
<polygon fill="blue" stroke="blue" points="504.607,-33.1315 494.05,-32.2363 501.745,-39.5195 504.607,-33.1315"/>
<text text-anchor="middle" x="593.5" y="-101.3" font-family="Times New Roman,serif" font-size="14.00">RecvDo</text>
</g>
<!-- LOCAL_WANT_NO_OPPOSITE&#45;&gt;LOCAL_WANT_NO -->
<g id="edge10" class="edge"><title>LOCAL_WANT_NO_OPPOSITE&#45;&gt;LOCAL_WANT_NO</title>
<path fill="none" stroke="red" d="M341.984,-123.244C345.239,-133.908 350.837,-147.195 360,-156 367.273,-162.989 376.106,-168.632 385.349,-173.174"/>
<polygon fill="red" stroke="red" points="384.129,-176.462 394.686,-177.358 386.992,-170.075 384.129,-176.462"/>
<text text-anchor="middle" x="390.5" y="-144.8" font-family="Times New Roman,serif" font-size="14.00">SendWont</text>
</g>
<!-- LOCAL_YES -->
<g id="node4" class="node"><title>LOCAL_YES</title>
<ellipse fill="none" stroke="black" cx="561" cy="-279" rx="63.0888" ry="18"/>
<text text-anchor="middle" x="561" y="-275.3" font-family="Times New Roman,serif" font-size="14.00">LOCAL_YES</text>
</g>
<!-- LOCAL_WANT_NO_OPPOSITE&#45;&gt;LOCAL_YES -->
<g id="edge9" class="edge"><title>LOCAL_WANT_NO_OPPOSITE&#45;&gt;LOCAL_YES</title>
<path fill="none" stroke="green" d="M452.646,-115.3C489.898,-124.56 527.216,-141.921 549,-174 564.268,-196.484 565.794,-228.184 564.422,-250.664"/>
<polygon fill="green" stroke="green" points="560.914,-250.619 563.564,-260.877 567.889,-251.206 560.914,-250.619"/>
<text text-anchor="middle" x="589" y="-188.3" font-family="Times New Roman,serif" font-size="14.00">SendWill</text>
</g>
<!-- LOCAL_WANT_NO_OPPOSITE&#45;&gt;LOCAL_WANT_YES -->
<g id="edge12" class="edge"><title>LOCAL_WANT_NO_OPPOSITE&#45;&gt;LOCAL_WANT_YES</title>
<path fill="none" stroke="purple" d="M339.958,-123.218C343.671,-161.647 349.192,-256.787 323,-330 321.868,-333.164 320.362,-336.297 318.647,-339.312"/>
<polygon fill="purple" stroke="purple" points="315.568,-337.627 313.047,-347.918 321.435,-341.445 315.568,-337.627"/>
<text text-anchor="middle" x="371" y="-231.8" font-family="Times New Roman,serif" font-size="14.00">RecvDont</text>
</g>
<!-- LOCAL_WANT_NO_OPPOSITE&#45;&gt;LOCAL_Error -->
<g id="edge11" class="edge"><title>LOCAL_WANT_NO_OPPOSITE&#45;&gt;LOCAL_Error</title>
<path fill="none" stroke="blue" stroke-dasharray="5,2" d="M360.918,-87.2067C378.863,-74.0574 403.985,-55.6492 423.608,-41.2703"/>
<polygon fill="blue" stroke="blue" points="425.919,-43.9155 431.917,-35.1817 421.782,-38.2691 425.919,-43.9155"/>
<text text-anchor="middle" x="426.5" y="-57.8" font-family="Times New Roman,serif" font-size="14.00">RecvDo</text>
</g>
<!-- LOCAL_YES&#45;&gt;LOCAL_NO -->
<g id="edge16" class="edge"><title>LOCAL_YES&#45;&gt;LOCAL_NO</title>
<path fill="none" stroke="purple" d="M552.588,-296.86C538.524,-324.039 508.277,-378.393 473,-417 468.894,-421.493 464.164,-425.848 459.346,-429.871"/>
<polygon fill="purple" stroke="purple" points="456.909,-427.337 451.251,-436.294 461.26,-432.82 456.909,-427.337"/>
<text text-anchor="middle" x="552" y="-362.3" font-family="Times New Roman,serif" font-size="14.00">RecvDont</text>
</g>
<!-- LOCAL_YES&#45;&gt;LOCAL_WANT_NO -->
<g id="edge14" class="edge"><title>LOCAL_YES&#45;&gt;LOCAL_WANT_NO</title>
<path fill="none" stroke="red" d="M528.997,-263.377C518.062,-257.716 506.062,-250.731 496,-243 486.453,-235.664 477.118,-226.328 469.317,-217.714"/>
<polygon fill="red" stroke="red" points="471.848,-215.292 462.622,-210.085 466.587,-219.909 471.848,-215.292"/>
<text text-anchor="middle" x="526.5" y="-231.8" font-family="Times New Roman,serif" font-size="14.00">SendWont</text>
</g>
<!-- LOCAL_YES&#45;&gt;LOCAL_Ignore -->
<g id="edge13" class="edge"><title>LOCAL_YES&#45;&gt;LOCAL_Ignore</title>
<path fill="none" stroke="green" stroke-dasharray="5,2" d="M572.254,-260.998C580.228,-250.157 591.823,-236.582 605,-228 619.302,-218.685 636.25,-211.707 652.542,-206.537"/>
<polygon fill="green" stroke="green" points="653.988,-209.758 662.571,-203.547 651.988,-203.05 653.988,-209.758"/>
<text text-anchor="middle" x="631" y="-231.8" font-family="Times New Roman,serif" font-size="14.00">SendWill</text>
</g>
<!-- LOCAL_YES&#45;&gt;LOCAL_Ignore -->
<g id="edge15" class="edge"><title>LOCAL_YES&#45;&gt;LOCAL_Ignore</title>
<path fill="none" stroke="blue" stroke-dasharray="5,2" d="M604.507,-265.762C621.487,-260.07 640.741,-252.446 657,-243 669.582,-235.69 682.085,-225.609 692.32,-216.412"/>
<polygon fill="blue" stroke="blue" points="694.706,-218.973 699.67,-209.613 689.953,-213.835 694.706,-218.973"/>
<text text-anchor="middle" x="701.5" y="-231.8" font-family="Times New Roman,serif" font-size="14.00">RecvDo</text>
</g>
<!-- LOCAL_WANT_YES&#45;&gt;LOCAL_NO -->
<g id="edge20" class="edge"><title>LOCAL_WANT_YES&#45;&gt;LOCAL_NO</title>
<path fill="none" stroke="purple" d="M266.662,-383.078C252.216,-392.605 240.216,-405.105 250,-417 264.013,-434.037 315.992,-442.909 360.189,-447.45"/>
<polygon fill="purple" stroke="purple" points="360.063,-450.954 370.353,-448.434 360.737,-443.987 360.063,-450.954"/>
<text text-anchor="middle" x="279" y="-405.8" font-family="Times New Roman,serif" font-size="14.00">RecvDont</text>
</g>
<!-- LOCAL_WANT_YES&#45;&gt;LOCAL_YES -->
<g id="edge19" class="edge"><title>LOCAL_WANT_YES&#45;&gt;LOCAL_YES</title>
<path fill="none" stroke="blue" d="M326.113,-348.53C348.199,-335.819 377.277,-319.642 390,-315 423.522,-302.769 462.386,-294.385 494.584,-288.896"/>
<polygon fill="blue" stroke="blue" points="495.491,-292.294 504.789,-287.215 494.353,-285.387 495.491,-292.294"/>
<text text-anchor="middle" x="413.5" y="-318.8" font-family="Times New Roman,serif" font-size="14.00">RecvDo</text>
</g>
<!-- LOCAL_WANT_YES_OPPOSITE -->
<g id="node6" class="node"><title>LOCAL_WANT_YES_OPPOSITE</title>
<ellipse fill="none" stroke="black" cx="172" cy="-279" rx="143.775" ry="18"/>
<text text-anchor="middle" x="172" y="-275.3" font-family="Times New Roman,serif" font-size="14.00">LOCAL_WANT_YES_OPPOSITE</text>
</g>
<!-- LOCAL_WANT_YES&#45;&gt;LOCAL_WANT_YES_OPPOSITE -->
<g id="edge18" class="edge"><title>LOCAL_WANT_YES&#45;&gt;LOCAL_WANT_YES_OPPOSITE</title>
<path fill="none" stroke="red" d="M228.171,-353.686C213.409,-348.51 198.991,-340.973 188,-330 181.855,-323.865 178.068,-315.373 175.735,-307.126"/>
<polygon fill="red" stroke="red" points="179.15,-306.358 173.549,-297.364 172.319,-307.888 179.15,-306.358"/>
<text text-anchor="middle" x="218.5" y="-318.8" font-family="Times New Roman,serif" font-size="14.00">SendWont</text>
</g>
<!-- LOCAL_WANT_YES&#45;&gt;LOCAL_Error -->
<g id="edge17" class="edge"><title>LOCAL_WANT_YES&#45;&gt;LOCAL_Error</title>
<path fill="none" stroke="green" stroke-dasharray="5,2" d="M232.691,-352.904C162.379,-339.212 55.673,-316.302 19,-297 8.97288,-291.723 0,-291.331 0,-280 0,-280 0,-280 0,-104 0,-65.5482 254.858,-37 382.674,-25.1004"/>
<polygon fill="green" stroke="green" points="383.135,-28.5729 392.772,-24.1704 382.493,-21.6024 383.135,-28.5729"/>
<text text-anchor="middle" x="26" y="-188.3" font-family="Times New Roman,serif" font-size="14.00">SendWill</text>
</g>
<!-- LOCAL_WANT_YES_OPPOSITE&#45;&gt;LOCAL_NO -->
<g id="edge24" class="edge"><title>LOCAL_WANT_YES_OPPOSITE&#45;&gt;LOCAL_NO</title>
<path fill="none" stroke="purple" d="M157.209,-296.942C139.984,-318.819 116.257,-357.251 136,-384 162.402,-419.771 283.594,-438.082 361.312,-446.306"/>
<polygon fill="purple" stroke="purple" points="361.199,-449.813 371.504,-447.354 361.914,-442.85 361.199,-449.813"/>
<text text-anchor="middle" x="165" y="-362.3" font-family="Times New Roman,serif" font-size="14.00">RecvDont</text>
</g>
<!-- LOCAL_WANT_YES_OPPOSITE&#45;&gt;LOCAL_WANT_NO -->
<g id="edge23" class="edge"><title>LOCAL_WANT_YES_OPPOSITE&#45;&gt;LOCAL_WANT_NO</title>
<path fill="none" stroke="blue" d="M198.879,-261.109C217.391,-250.174 242.904,-236.449 267,-228 297.96,-217.144 333.131,-209.384 364.246,-203.975"/>
<polygon fill="blue" stroke="blue" points="364.915,-207.412 374.195,-202.301 363.753,-200.509 364.915,-207.412"/>
<text text-anchor="middle" x="290.5" y="-231.8" font-family="Times New Roman,serif" font-size="14.00">RecvDo</text>
</g>
<!-- LOCAL_WANT_YES_OPPOSITE&#45;&gt;LOCAL_WANT_YES -->
<g id="edge21" class="edge"><title>LOCAL_WANT_YES_OPPOSITE&#45;&gt;LOCAL_WANT_YES</title>
<path fill="none" stroke="green" d="M215.086,-296.219C226.573,-301.427 238.657,-307.755 249,-315 259.317,-322.227 269.312,-331.797 277.554,-340.629"/>
<polygon fill="green" stroke="green" points="275.014,-343.039 284.31,-348.123 280.213,-338.352 275.014,-343.039"/>
<text text-anchor="middle" x="293" y="-318.8" font-family="Times New Roman,serif" font-size="14.00">SendWill</text>
</g>
<!-- LOCAL_WANT_YES_OPPOSITE&#45;&gt;LOCAL_Error -->
<g id="edge22" class="edge"><title>LOCAL_WANT_YES_OPPOSITE&#45;&gt;LOCAL_Error</title>
<path fill="none" stroke="red" stroke-dasharray="5,2" d="M167.651,-260.766C159.493,-224.021 146.325,-137.237 189,-87 214.206,-57.3277 315.802,-37.7726 385.615,-27.5452"/>
<polygon fill="red" stroke="red" points="386.269,-30.9873 395.671,-26.1038 385.276,-24.0581 386.269,-30.9873"/>
<text text-anchor="middle" x="194.5" y="-144.8" font-family="Times New Roman,serif" font-size="14.00">SendWont</text>
</g>
<!-- REMOTE_NO -->
<g id="node9" class="node"><title>REMOTE_NO</title>
<ellipse fill="none" stroke="black" cx="1331" cy="-453" rx="66.0889" ry="18"/>
<text text-anchor="middle" x="1331" y="-449.3" font-family="Times New Roman,serif" font-size="14.00">REMOTE_NO</text>
</g>
<!-- REMOTE_WANT_YES -->
<g id="node13" class="node"><title>REMOTE_WANT_YES</title>
<ellipse fill="none" stroke="black" cx="1213" cy="-366" rx="102.882" ry="18"/>
<text text-anchor="middle" x="1213" y="-362.3" font-family="Times New Roman,serif" font-size="14.00">REMOTE_WANT_YES</text>
</g>
<!-- REMOTE_NO&#45;&gt;REMOTE_WANT_YES -->
<g id="edge25" class="edge"><title>REMOTE_NO&#45;&gt;REMOTE_WANT_YES</title>
<path fill="none" stroke="green" d="M1276.15,-442.718C1259.54,-437.546 1242.43,-429.503 1230,-417 1223.84,-410.806 1219.91,-402.298 1217.41,-394.055"/>
<polygon fill="green" stroke="green" points="1220.79,-393.177 1215,-384.307 1214,-394.854 1220.79,-393.177"/>
<text text-anchor="middle" x="1253" y="-405.8" font-family="Times New Roman,serif" font-size="14.00">SendDo</text>
</g>
<!-- REMOTE_NO&#45;&gt;REMOTE_WANT_YES -->
<g id="edge27" class="edge"><title>REMOTE_NO&#45;&gt;REMOTE_WANT_YES</title>
<path fill="none" stroke="blue" d="M1314.53,-435.162C1304.03,-424.915 1289.84,-411.931 1276,-402 1269.35,-397.23 1261.99,-392.613 1254.71,-388.382"/>
<polygon fill="blue" stroke="blue" points="1256.03,-385.107 1245.6,-383.248 1252.59,-391.206 1256.03,-385.107"/>
<text text-anchor="middle" x="1320" y="-405.8" font-family="Times New Roman,serif" font-size="14.00">RecvWill</text>
</g>
<!-- REMOTE_Ignore -->
<g id="node15" class="node"><title>REMOTE_Ignore</title>
<ellipse fill="none" stroke="black" cx="1614" cy="-192" rx="76.8869" ry="18"/>
<text text-anchor="middle" x="1614" y="-188.3" font-family="Times New Roman,serif" font-size="14.00">REMOTE_Ignore</text>
</g>
<!-- REMOTE_NO&#45;&gt;REMOTE_Ignore -->
<g id="edge28" class="edge"><title>REMOTE_NO&#45;&gt;REMOTE_Ignore</title>
<path fill="none" stroke="purple" stroke-dasharray="5,2" d="M1374.94,-439.392C1409.49,-428.202 1457.83,-409.639 1495,-384 1565.91,-335.087 1596.2,-323.062 1628,-243 1630.99,-235.46 1630.15,-227.042 1627.8,-219.295"/>
<polygon fill="purple" stroke="purple" points="1631.06,-218.023 1624.19,-209.957 1624.54,-220.547 1631.06,-218.023"/>
<text text-anchor="middle" x="1617.5" y="-318.8" font-family="Times New Roman,serif" font-size="14.00">RecvWont</text>
</g>
<!-- REMOTE_Error -->
<g id="node16" class="node"><title>REMOTE_Error</title>
<ellipse fill="none" stroke="black" cx="1327" cy="-18" rx="72.2875" ry="18"/>
<text text-anchor="middle" x="1327" y="-14.3" font-family="Times New Roman,serif" font-size="14.00">REMOTE_Error</text>
</g>
<!-- REMOTE_NO&#45;&gt;REMOTE_Error -->
<g id="edge26" class="edge"><title>REMOTE_NO&#45;&gt;REMOTE_Error</title>
<path fill="none" stroke="red" stroke-dasharray="5,2" d="M1397.26,-450.958C1508.08,-447.4 1719,-432.08 1719,-367 1719,-367 1719,-367 1719,-104 1719,-41.1348 1524.01,-24.664 1409.08,-20.416"/>
<polygon fill="red" stroke="red" points="1409.01,-16.9117 1398.9,-20.0638 1408.77,-23.9075 1409.01,-16.9117"/>
<text text-anchor="middle" x="1747.5" y="-231.8" font-family="Times New Roman,serif" font-size="14.00">SendDont</text>
</g>
<!-- REMOTE_WANT_NO -->
<g id="node10" class="node"><title>REMOTE_WANT_NO</title>
<ellipse fill="none" stroke="black" cx="1338" cy="-192" rx="98.5829" ry="18"/>
<text text-anchor="middle" x="1338" y="-188.3" font-family="Times New Roman,serif" font-size="14.00">REMOTE_WANT_NO</text>
</g>
<!-- REMOTE_WANT_NO&#45;&gt;REMOTE_NO -->
<g id="edge32" class="edge"><title>REMOTE_WANT_NO&#45;&gt;REMOTE_NO</title>
<path fill="none" stroke="purple" d="M1339.31,-210.053C1341.98,-245.678 1347.95,-330.612 1350,-402 1350.19,-408.664 1351.64,-410.538 1350,-417 1349.23,-420.051 1348.13,-423.124 1346.84,-426.115"/>
<polygon fill="purple" stroke="purple" points="1343.61,-424.749 1342.27,-435.259 1349.87,-427.875 1343.61,-424.749"/>
<text text-anchor="middle" x="1377.5" y="-318.8" font-family="Times New Roman,serif" font-size="14.00">RecvWont</text>
</g>
<!-- REMOTE_WANT_NO_OPPOSITE -->
<g id="node11" class="node"><title>REMOTE_WANT_NO_OPPOSITE</title>
<ellipse fill="none" stroke="black" cx="1206" cy="-105" rx="147.574" ry="18"/>
<text text-anchor="middle" x="1206" y="-101.3" font-family="Times New Roman,serif" font-size="14.00">REMOTE_WANT_NO_OPPOSITE</text>
</g>
<!-- REMOTE_WANT_NO&#45;&gt;REMOTE_WANT_NO_OPPOSITE -->
<g id="edge29" class="edge"><title>REMOTE_WANT_NO&#45;&gt;REMOTE_WANT_NO_OPPOSITE</title>
<path fill="none" stroke="green" d="M1330.5,-173.593C1325.09,-162.864 1316.83,-149.566 1306,-141 1298.1,-134.754 1289.01,-129.578 1279.59,-125.301"/>
<polygon fill="green" stroke="green" points="1280.67,-121.96 1270.1,-121.317 1277.96,-128.415 1280.67,-121.96"/>
<text text-anchor="middle" x="1343" y="-144.8" font-family="Times New Roman,serif" font-size="14.00">SendDo</text>
</g>
<!-- REMOTE_WANT_NO&#45;&gt;REMOTE_Error -->
<g id="edge30" class="edge"><title>REMOTE_WANT_NO&#45;&gt;REMOTE_Error</title>
<path fill="none" stroke="red" stroke-dasharray="5,2" d="M1357.87,-174.29C1362.78,-169.001 1367.38,-162.754 1370,-156 1372.41,-149.785 1370.43,-147.653 1370,-141 1368.44,-116.849 1370.33,-110.063 1363,-87 1358.32,-72.2912 1350.53,-57.0072 1343.39,-44.6636"/>
<polygon fill="red" stroke="red" points="1346.26,-42.64 1338.12,-35.8559 1340.26,-46.2342 1346.26,-42.64"/>
<text text-anchor="middle" x="1398.5" y="-101.3" font-family="Times New Roman,serif" font-size="14.00">SendDont</text>
</g>
<!-- REMOTE_WANT_NO&#45;&gt;REMOTE_Error -->
<g id="edge31" class="edge"><title>REMOTE_WANT_NO&#45;&gt;REMOTE_Error</title>
<path fill="none" stroke="blue" stroke-dasharray="5,2" d="M1373.91,-175.164C1394.7,-163.886 1419.05,-146.542 1431,-123 1438.24,-108.733 1438.61,-101.073 1431,-87 1419.02,-64.8519 1396.34,-48.7639 1375.21,-37.8142"/>
<polygon fill="blue" stroke="blue" points="1376.5,-34.5447 1365.98,-33.2878 1373.42,-40.8307 1376.5,-34.5447"/>
<text text-anchor="middle" x="1463" y="-101.3" font-family="Times New Roman,serif" font-size="14.00">RecvWill</text>
</g>
<!-- REMOTE_WANT_NO_OPPOSITE&#45;&gt;REMOTE_WANT_NO -->
<g id="edge34" class="edge"><title>REMOTE_WANT_NO_OPPOSITE&#45;&gt;REMOTE_WANT_NO</title>
<path fill="none" stroke="red" d="M1216.03,-123.288C1222.99,-133.97 1233.12,-147.259 1245,-156 1254.14,-162.72 1264.71,-168.296 1275.39,-172.874"/>
<polygon fill="red" stroke="red" points="1274.18,-176.159 1284.76,-176.643 1276.79,-169.665 1274.18,-176.159"/>
<text text-anchor="middle" x="1273.5" y="-144.8" font-family="Times New Roman,serif" font-size="14.00">SendDont</text>
</g>
<!-- REMOTE_YES -->
<g id="node12" class="node"><title>REMOTE_YES</title>
<ellipse fill="none" stroke="black" cx="1468" cy="-279" rx="70.3881" ry="18"/>
<text text-anchor="middle" x="1468" y="-275.3" font-family="Times New Roman,serif" font-size="14.00">REMOTE_YES</text>
</g>
<!-- REMOTE_WANT_NO_OPPOSITE&#45;&gt;REMOTE_YES -->
<g id="edge33" class="edge"><title>REMOTE_WANT_NO_OPPOSITE&#45;&gt;REMOTE_YES</title>
<path fill="none" stroke="green" d="M1291.16,-119.768C1351.75,-131.401 1425.84,-150.001 1446,-174 1463.93,-195.348 1468.36,-227.718 1468.98,-250.667"/>
<polygon fill="green" stroke="green" points="1465.48,-250.796 1469.03,-260.78 1472.48,-250.765 1465.48,-250.796"/>
<text text-anchor="middle" x="1487" y="-188.3" font-family="Times New Roman,serif" font-size="14.00">SendDo</text>
</g>
<!-- REMOTE_WANT_NO_OPPOSITE&#45;&gt;REMOTE_WANT_YES -->
<g id="edge36" class="edge"><title>REMOTE_WANT_NO_OPPOSITE&#45;&gt;REMOTE_WANT_YES</title>
<path fill="none" stroke="purple" d="M1210.78,-123.115C1219.5,-156.531 1236.45,-232.803 1229,-297 1227.41,-310.741 1224.06,-325.737 1220.83,-338.141"/>
<polygon fill="purple" stroke="purple" points="1217.43,-337.299 1218.19,-347.867 1224.19,-339.132 1217.43,-337.299"/>
<text text-anchor="middle" x="1261.5" y="-231.8" font-family="Times New Roman,serif" font-size="14.00">RecvWont</text>
</g>
<!-- REMOTE_WANT_NO_OPPOSITE&#45;&gt;REMOTE_Error -->
<g id="edge35" class="edge"><title>REMOTE_WANT_NO_OPPOSITE&#45;&gt;REMOTE_Error</title>
<path fill="none" stroke="blue" stroke-dasharray="5,2" d="M1229.91,-87.2067C1248.71,-73.9984 1275.06,-55.484 1295.57,-41.0771"/>
<polygon fill="blue" stroke="blue" points="1297.79,-43.7939 1303.96,-35.1817 1293.77,-38.066 1297.79,-43.7939"/>
<text text-anchor="middle" x="1300" y="-57.8" font-family="Times New Roman,serif" font-size="14.00">RecvWill</text>
</g>
<!-- REMOTE_YES&#45;&gt;REMOTE_NO -->
<g id="edge40" class="edge"><title>REMOTE_YES&#45;&gt;REMOTE_NO</title>
<path fill="none" stroke="purple" d="M1459.59,-296.979C1445.5,-324.326 1415.09,-378.91 1379,-417 1374.62,-421.618 1369.57,-426.043 1364.42,-430.1"/>
<polygon fill="purple" stroke="purple" points="1362.24,-427.356 1356.33,-436.146 1366.43,-432.964 1362.24,-427.356"/>
<text text-anchor="middle" x="1460.5" y="-362.3" font-family="Times New Roman,serif" font-size="14.00">RecvWont</text>
</g>
<!-- REMOTE_YES&#45;&gt;REMOTE_WANT_NO -->
<g id="edge38" class="edge"><title>REMOTE_YES&#45;&gt;REMOTE_WANT_NO</title>
<path fill="none" stroke="red" d="M1436.47,-262.712C1425.33,-256.942 1412.88,-250.058 1402,-243 1389.56,-234.929 1376.53,-225.049 1365.51,-216.21"/>
<polygon fill="red" stroke="red" points="1367.48,-213.297 1357.51,-209.7 1363.06,-218.727 1367.48,-213.297"/>
<text text-anchor="middle" x="1430.5" y="-231.8" font-family="Times New Roman,serif" font-size="14.00">SendDont</text>
</g>
<!-- REMOTE_YES&#45;&gt;REMOTE_Ignore -->
<g id="edge37" class="edge"><title>REMOTE_YES&#45;&gt;REMOTE_Ignore</title>
<path fill="none" stroke="green" stroke-dasharray="5,2" d="M1477.6,-261.013C1484.51,-250.178 1494.75,-236.605 1507,-228 1519.35,-219.33 1533.97,-212.706 1548.39,-207.683"/>
<polygon fill="green" stroke="green" points="1549.87,-210.88 1558.3,-204.456 1547.71,-204.224 1549.87,-210.88"/>
<text text-anchor="middle" x="1530" y="-231.8" font-family="Times New Roman,serif" font-size="14.00">SendDo</text>
</g>
<!-- REMOTE_YES&#45;&gt;REMOTE_Ignore -->
<g id="edge39" class="edge"><title>REMOTE_YES&#45;&gt;REMOTE_Ignore</title>
<path fill="none" stroke="blue" stroke-dasharray="5,2" d="M1508.53,-264.138C1523.01,-258.46 1539.16,-251.268 1553,-243 1565.65,-235.444 1578.43,-225.409 1589.01,-216.312"/>
<polygon fill="blue" stroke="blue" points="1591.45,-218.834 1596.63,-209.596 1586.82,-213.582 1591.45,-218.834"/>
<text text-anchor="middle" x="1601" y="-231.8" font-family="Times New Roman,serif" font-size="14.00">RecvWill</text>
</g>
<!-- REMOTE_WANT_YES&#45;&gt;REMOTE_NO -->
<g id="edge44" class="edge"><title>REMOTE_WANT_YES&#45;&gt;REMOTE_NO</title>
<path fill="none" stroke="purple" d="M1175.3,-382.882C1158.91,-392.056 1145.57,-404.275 1156,-417 1169.05,-432.916 1215.68,-441.739 1257.53,-446.544"/>
<polygon fill="purple" stroke="purple" points="1257.16,-450.024 1267.48,-447.623 1257.92,-443.065 1257.16,-450.024"/>
<text text-anchor="middle" x="1186.5" y="-405.8" font-family="Times New Roman,serif" font-size="14.00">RecvWont</text>
</g>
<!-- REMOTE_WANT_YES&#45;&gt;REMOTE_YES -->
<g id="edge43" class="edge"><title>REMOTE_WANT_YES&#45;&gt;REMOTE_YES</title>
<path fill="none" stroke="blue" d="M1236.66,-348.442C1255.28,-335.678 1279.88,-319.474 1291,-315 1323.79,-301.804 1362.05,-293.442 1394.6,-288.215"/>
<polygon fill="blue" stroke="blue" points="1395.16,-291.671 1404.51,-286.692 1394.09,-284.752 1395.16,-291.671"/>
<text text-anchor="middle" x="1317" y="-318.8" font-family="Times New Roman,serif" font-size="14.00">RecvWill</text>
</g>
<!-- REMOTE_WANT_YES_OPPOSITE -->
<g id="node14" class="node"><title>REMOTE_WANT_YES_OPPOSITE</title>
<ellipse fill="none" stroke="black" cx="1069" cy="-279" rx="151.373" ry="18"/>
<text text-anchor="middle" x="1069" y="-275.3" font-family="Times New Roman,serif" font-size="14.00">REMOTE_WANT_YES_OPPOSITE</text>
</g>
<!-- REMOTE_WANT_YES&#45;&gt;REMOTE_WANT_YES_OPPOSITE -->
<g id="edge42" class="edge"><title>REMOTE_WANT_YES&#45;&gt;REMOTE_WANT_YES_OPPOSITE</title>
<path fill="none" stroke="red" d="M1134.36,-354.39C1117.91,-349.177 1101.72,-341.446 1089,-330 1082.21,-323.887 1077.68,-315.153 1074.69,-306.69"/>
<polygon fill="red" stroke="red" points="1078.03,-305.645 1071.83,-297.053 1071.32,-307.636 1078.03,-305.645"/>
<text text-anchor="middle" x="1117.5" y="-318.8" font-family="Times New Roman,serif" font-size="14.00">SendDont</text>
</g>
<!-- REMOTE_WANT_YES&#45;&gt;REMOTE_Error -->
<g id="edge41" class="edge"><title>REMOTE_WANT_YES&#45;&gt;REMOTE_Error</title>
<path fill="none" stroke="green" stroke-dasharray="5,2" d="M1140.81,-353.187C1064.19,-339.89 948.799,-317.466 909,-297 898.923,-291.818 890,-291.331 890,-280 890,-280 890,-280 890,-104 890,-32.5106 1118.19,-19.9552 1244.78,-18.4904"/>
<polygon fill="green" stroke="green" points="1244.87,-21.9898 1254.84,-18.3949 1244.81,-14.9901 1244.87,-21.9898"/>
<text text-anchor="middle" x="913" y="-188.3" font-family="Times New Roman,serif" font-size="14.00">SendDo</text>
</g>
<!-- REMOTE_WANT_YES_OPPOSITE&#45;&gt;REMOTE_NO -->
<g id="edge48" class="edge"><title>REMOTE_WANT_YES_OPPOSITE&#45;&gt;REMOTE_NO</title>
<path fill="none" stroke="purple" d="M1056,-297.114C1040.95,-319.176 1020.56,-357.809 1040,-384 1065.74,-418.69 1181.12,-437.022 1258.64,-445.599"/>
<polygon fill="purple" stroke="purple" points="1258.52,-449.107 1268.84,-446.696 1259.27,-442.147 1258.52,-449.107"/>
<text text-anchor="middle" x="1070.5" y="-362.3" font-family="Times New Roman,serif" font-size="14.00">RecvWont</text>
</g>
<!-- REMOTE_WANT_YES_OPPOSITE&#45;&gt;REMOTE_WANT_NO -->
<g id="edge47" class="edge"><title>REMOTE_WANT_YES_OPPOSITE&#45;&gt;REMOTE_WANT_NO</title>
<path fill="none" stroke="blue" d="M1093.42,-261.022C1110.29,-250.049 1133.63,-236.314 1156,-228 1184.99,-217.225 1217.88,-209.607 1247.64,-204.294"/>
<polygon fill="blue" stroke="blue" points="1248.34,-207.725 1257.6,-202.58 1247.16,-200.826 1248.34,-207.725"/>
<text text-anchor="middle" x="1182" y="-231.8" font-family="Times New Roman,serif" font-size="14.00">RecvWill</text>
</g>
<!-- REMOTE_WANT_YES_OPPOSITE&#45;&gt;REMOTE_WANT_YES -->
<g id="edge45" class="edge"><title>REMOTE_WANT_YES_OPPOSITE&#45;&gt;REMOTE_WANT_YES</title>
<path fill="none" stroke="green" d="M1109.39,-296.402C1121.44,-301.812 1134.5,-308.2 1146,-315 1159.37,-322.904 1173.27,-332.938 1184.92,-341.94"/>
<polygon fill="green" stroke="green" points="1182.95,-344.837 1192.97,-348.267 1187.27,-339.334 1182.95,-344.837"/>
<text text-anchor="middle" x="1191" y="-318.8" font-family="Times New Roman,serif" font-size="14.00">SendDo</text>
</g>
<!-- REMOTE_WANT_YES_OPPOSITE&#45;&gt;REMOTE_Error -->
<g id="edge46" class="edge"><title>REMOTE_WANT_YES_OPPOSITE&#45;&gt;REMOTE_Error</title>
<path fill="none" stroke="red" stroke-dasharray="5,2" d="M1060.11,-261.027C1042.5,-224.788 1008.24,-138.93 1049,-87 1073.79,-55.4097 1178.12,-36.6016 1251.65,-27.0288"/>
<polygon fill="red" stroke="red" points="1252.33,-30.4706 1261.81,-25.7389 1251.45,-23.5263 1252.33,-30.4706"/>
<text text-anchor="middle" x="1059.5" y="-144.8" font-family="Times New Roman,serif" font-size="14.00">SendDont</text>
</g>
</g>
</svg>
